<?xml version="1.0" encoding="UTF-8" standalone="no"?>
<!-- Generator: Adobe Illustrator 21.1.0, SVG Export Plug-In . SVG Version: 6.00 Build 0)  -->

<svg
   viewBox="0 0 50 50"
   width="50px"
   height="50px"
   version="1.1"
   id="svg2"
   sodipodi:docname="icons8-instagram.svg"
   inkscape:version="1.4 (86a8ad7, 2024-10-11)"
   xmlns:inkscape="http://www.inkscape.org/namespaces/inkscape"
   xmlns:sodipodi="http://sodipodi.sourceforge.net/DTD/sodipodi-0.dtd"
   xmlns="http://www.w3.org/2000/svg"
   xmlns:svg="http://www.w3.org/2000/svg">
  <defs
     id="defs2" />
  <sodipodi:namedview
     id="namedview2"
     pagecolor="#ffffff"
     bordercolor="#000000"
     borderopacity="0.25"
     inkscape:showpageshadow="2"
     inkscape:pageopacity="0.0"
     inkscape:pagecheckerboard="0"
     inkscape:deskcolor="#d1d1d1"
     inkscape:zoom="15.46"
     inkscape:cx="25"
     inkscape:cy="25"
     inkscape:window-width="1920"
     inkscape:window-height="991"
     inkscape:window-x="2391"
     inkscape:window-y="-9"
     inkscape:window-maximized="1"
     inkscape:current-layer="svg2" />
  <path
     d="M34,3H16C8.83,3,3,8.83,3,16v18c0,7.17,5.83,13,13,13h18c7.17,0,13-5.83,13-13V16C47,8.83,41.17,3,34,3z M25,36c-6.07,0-11-4.93-11-11s4.93-11,11-11s11,4.93,11,11S31.07,36,25,36z M37,15c-1.1,0-2-0.9-2-2s0.9-2,2-2s2,0.9,2,2S38.1,15,37,15z"
     id="path1"
     style="fill:#ffffff" />
  <path
     d="M34,25c0,4.96-4.04,9-9,9s-9-4.04-9-9s4.04-9,9-9S34,20.04,34,25z"
     id="path2"
     style="fill:#ffffff" />
</svg>
