<?xml version="1.0" encoding="UTF-8" standalone="no"?>
<!-- Created with Inkscape (http://www.inkscape.org/) -->

<svg
   width="155.28358mm"
   height="28.063299mm"
   viewBox="0 0 155.28358 28.063298"
   version="1.1"
   id="svg1"
   inkscape:version="1.4 (e7c3feb100, 2024-10-09)"
   sodipodi:docname="logo2.svg"
   xmlns:inkscape="http://www.inkscape.org/namespaces/inkscape"
   xmlns:sodipodi="http://sodipodi.sourceforge.net/DTD/sodipodi-0.dtd"
   xmlns="http://www.w3.org/2000/svg"
   xmlns:svg="http://www.w3.org/2000/svg">
  <sodipodi:namedview
     id="namedview1"
     pagecolor="#ffffff"
     bordercolor="#000000"
     borderopacity="0.25"
     inkscape:showpageshadow="2"
     inkscape:pageopacity="0.0"
     inkscape:pagecheckerboard="0"
     inkscape:deskcolor="#d1d1d1"
     inkscape:document-units="mm"
     showguides="true"
     inkscape:zoom="0.5"
     inkscape:cx="908"
     inkscape:cy="94"
     inkscape:window-width="1920"
     inkscape:window-height="992"
     inkscape:window-x="1920"
     inkscape:window-y="0"
     inkscape:window-maximized="1"
     inkscape:current-layer="g15">
    <inkscape:page
       x="0"
       y="-1.9518102e-14"
       width="155.28358"
       height="28.063299"
       id="page2"
       margin="0"
       bleed="0" />
  </sodipodi:namedview>
  <defs
     id="defs1" />
  <g
     inkscape:label="Layer 1"
     inkscape:groupmode="layer"
     id="layer1"
     transform="translate(-175.84143,-47.366422)">
    <g
       id="g15"
       transform="translate(0.25025554)">
      <rect
         style="fill:#000000;fill-opacity:0;stroke-width:2;stroke-linecap:square;paint-order:stroke markers fill"
         id="rect9"
         width="155.28358"
         height="28.063299"
         x="175.59119"
         y="47.366421" />
      <circle
         style="fill:#000000;stroke:#ffffff;stroke-width:5;stroke-linecap:round;paint-order:stroke markers fill"
         id="path7"
         cx="446.59143"
         cy="427.5239"
         r="82.832047"
         inkscape:export-filename="logo pfp.svg"
         inkscape:export-xdpi="96"
         inkscape:export-ydpi="96" />
      <rect
         style="fill:#000000;fill-opacity:1;stroke:#ffffff;stroke-width:5;stroke-linecap:round;stroke-dasharray:none;paint-order:stroke markers fill"
         id="rect4"
         width="141.12083"
         height="141.12083"
         x="376.03101"
         y="63.898071"
         inkscape:export-filename="C:\Users\warre\OneDrive\Desktop\logo.png"
         inkscape:export-xdpi="96"
         inkscape:export-ydpi="96" />
      <path
         id="path5"
         style="-inkscape-font-specification:'Bodoni MT, Normal';fill:#ffffff;stroke-width:1;stroke-linecap:round;paint-order:fill markers stroke"
         d="m 385.39131,88.095304 v 4.675207 h 9.89766 v 55.257979 h -9.89766 v 4.67521 h 33.36891 v -4.67521 h -10.1237 v -23.82814 h 7.8753 c 8.75435,0 15.18174,-1.62893 19.20052,-5.17487 3.92628,-3.46821 5.97191,-7.91192 5.97191,-13.03827 0,-5.00769 -2.02996,-9.361001 -5.92433,-12.764643 -3.93751,-3.470355 -9.67756,-5.127263 -17.09487,-5.127263 z m 23.24521,4.675207 h 6.97119 c 2.59643,0 4.72558,0.248163 6.38829,0.678187 1.46894,0.354518 2.77299,1.32967 3.96143,3.140609 1.71711,2.547643 1.56724,5.591753 1.84395,8.541473 0,4.61542 -0.80733,7.94588 -2.11744,9.89766 -1.37387,2.08958 -2.91749,3.24192 -4.67523,3.68783 -1.94132,0.49264 -4.4432,0.76129 -7.50651,0.76129 h -4.85366 z"
         sodipodi:nodetypes="ccccccccccscscsccsccscsscc" />
      <path
         id="text5"
         style="font-weight:bold;font-size:19.3452px;font-family:'Bodoni MT';-inkscape-font-specification:'Bodoni MT, Bold';text-align:center;text-anchor:middle;fill:#ffffff;stroke-width:0.200001;stroke-linecap:round;paint-order:fill markers stroke"
         d="m 400.34435,158.77662 -0.65163,0.0847 c -0.62973,0.063 -1.21845,0.0946 -1.76631,0.0946 h -1.03921 v 0.57619 h 1.17099 v 11.51455 h -1.09554 v 0.57619 h 4.77955 v -0.57619 h -1.10484 v -4.3925 c 0,-0.17633 0.173,-0.55392 0.51935,-1.13327 0.35265,-0.58564 0.8185,-0.87849 1.39785,-0.87849 0.48488,0 0.7276,0.36505 0.7276,1.09554 v 5.30872 h -1.07694 v 0.57619 h 4.73253 v -0.57619 h -1.07694 v -4.76044 c 0,-0.98237 -0.27379,-1.6438 -0.82165,-1.98386 -0.54786,-0.34005 -1.09296,-0.51004 -1.63453,-0.51004 -1.23426,0 -2.14391,0.60425 -2.72955,1.81332 h -0.0377 v -6.82904 z m 30.39712,0 -0.72761,0.0847 c -0.56046,0.063 -1.01378,0.0946 -1.36012,0.0946 h -1.23765 v 0.57619 h 1.02009 v 11.51455 h -1.02009 v 0.57619 h 1.25625 c 0.81235,0 1.50237,0.0376 2.06913,0.11317 h 0.27388 v -1.0387 h 0.0377 c 0.44082,0.77457 1.07666,1.16169 1.9079,1.16169 0.81864,0 1.54627,-0.39665 2.18229,-1.19011 0.63602,-0.79345 0.95395,-1.77281 0.95395,-2.9378 0,-1.1713 -0.31492,-2.11906 -0.94464,-2.84324 -0.62973,-0.73048 -1.34431,-1.09554 -2.14406,-1.09554 -0.85643,0 -1.50833,0.35252 -1.95544,1.05781 h -0.0377 v -6.07353 z m 63.24006,0 -2.26704,0.17932 h -0.8692 v 0.57619 h 1.08624 v 11.51455 h -1.08624 v 0.57619 h 4.50567 v -0.57619 h -0.86868 v -3.37189 h 0.0377 l 2.38022,3.37189 h -1.01079 v 0.57619 h 4.83639 v -0.57619 h -0.7555 l -3.40083,-4.68499 0.92604,-0.92604 c 0.37783,-0.37784 0.7083,-0.61051 0.99167,-0.69867 0.28338,-0.0882 0.65796,-0.13229 1.12396,-0.13229 h 0.28371 v -0.58549 h -4.00544 v 0.58549 h 0.52916 c 0.44711,0 0.67076,0.0943 0.67076,0.28319 0,0.063 -0.0978,0.19836 -0.293,0.40617 -0.18891,0.20154 -0.28971,0.31187 -0.30231,0.33073 l -2.01176,1.93632 v -8.78448 z m -108.59027,0.17932 v 0.61392 h 1.57768 v 11.42979 h -1.57768 v 0.62322 h 6.49883 v -0.62322 h -1.82314 v -5.29942 h 0.56689 c 2.12847,0 3.6118,-0.33998 4.44934,-1.02009 0.83754,-0.6801 1.25625,-1.47341 1.25625,-2.38022 0,-0.89421 -0.37811,-1.67498 -1.13378,-2.34249 -0.75567,-0.66751 -2.02436,-1.00149 -3.80649,-1.00149 z m 72.2049,0 v 0.61392 h 1.3503 l 4.93097,12.28917 h 0.62322 l 2.55074,-5.2896 2.12494,5.2896 h 0.62373 l 4.4111,-11.08925 c 0.2393,-0.60453 0.41582,-0.95405 0.52917,-1.04851 0.11335,-0.10076 0.42475,-0.15141 0.93483,-0.15141 h 0.293 v -0.61392 h -3.50418 v 0.61392 h 0.64234 c 0.42822,0 0.64182,0.10379 0.64182,0.31161 0,0.19521 -0.0531,0.41586 -0.16019,0.66145 -0.10076,0.2393 -0.15142,0.36516 -0.15142,0.37776 l -2.72954,6.8957 -1.93684,-4.8364 1.14309,-2.36161 c 0.233,-0.48489 0.42205,-0.78075 0.56689,-0.8878 0.14484,-0.10705 0.42215,-0.16071 0.83147,-0.16071 h 0.32091 v -0.61392 z m -18.40095,0.22686 c -0.37784,0 -0.70228,0.13539 -0.97306,0.40618 -0.26449,0.26448 -0.39636,0.58893 -0.39636,0.97306 0,0.37784 0.13187,0.70529 0.39636,0.98237 0.27078,0.27078 0.59522,0.40618 0.97306,0.40618 0.38414,0 0.71159,-0.1354 0.98237,-0.40618 0.27708,-0.27708 0.41548,-0.60453 0.41548,-0.98237 0,-0.37783 -0.1384,-0.70228 -0.41548,-0.97306 -0.27078,-0.27079 -0.59823,-0.40618 -0.98237,-0.40618 z m -49.12826,0.38706 h 0.68057 c 0.55416,0 0.9789,0.0441 1.27486,0.13229 0.30228,0.0882 0.54799,0.33088 0.73691,0.7276 0.19522,0.39044 0.293,1.01375 0.293,1.87017 0,0.87532 -0.0978,1.51417 -0.293,1.9172 -0.19522,0.39672 -0.44694,0.64244 -0.75551,0.7369 -0.30227,0.0882 -0.73404,0.1323 -1.2945,0.1323 h -0.64233 z m 72.01576,0 h 2.16317 l 2.49391,6.1681 -1.18081,2.46548 z m 5.33714,0 h 1.47329 c 0.37154,0 0.55759,0.11685 0.55759,0.34985 0,0.13854 -0.0567,0.32407 -0.17001,0.55707 l -0.81236,1.70945 z m -55.54183,4.22248 c -1.24056,0 -2.24499,0.40317 -3.01325,1.20923 -0.76827,0.80604 -1.15291,1.75029 -1.15291,2.83342 0,1.07054 0.37811,2.00876 1.13378,2.81481 0.75568,0.80605 1.76663,1.20923 3.03238,1.20923 1.26575,0 2.27919,-0.39665 3.04116,-1.19011 0.76826,-0.79345 1.15238,-1.73821 1.15238,-2.83393 0,-1.10202 -0.38712,-2.04979 -1.16169,-2.84324 -0.76826,-0.79976 -1.77869,-1.19941 -3.03185,-1.19941 z m 8.45375,0 -0.84078,0.11317 c -0.61083,0.0756 -1.22762,0.11369 -1.85105,0.11369 h -0.68988 v 0.58549 h 1.07694 v 6.44199 h -1.09554 v 0.57619 h 4.77955 v -0.57619 h -1.10536 v -3.75947 c 0,-0.99496 0.23318,-1.691 0.69918,-2.08772 0.466,-0.39673 0.85664,-0.5948 1.17151,-0.5948 0.233,0 0.41201,0.0722 0.53795,0.21704 0.13225,0.14484 0.19844,0.45675 0.19844,0.93535 v 5.2896 h -1.09554 v 0.57619 h 4.75113 v -0.57619 h -1.07694 v -5.14801 c 0,-0.47859 -0.0567,-0.83412 -0.17002,-1.06712 -0.10705,-0.23929 -0.36178,-0.47247 -0.76481,-0.69918 -0.40302,-0.2267 -0.8724,-0.34003 -1.40766,-0.34003 -1.20278,0 -2.138,0.53505 -2.80552,1.60558 h -0.0377 v -1.60558 z m 20.24269,0 c -0.0567,0 -0.29587,0.0376 -0.71779,0.11317 -0.42192,0.0756 -0.94495,0.11369 -1.56838,0.11369 h -1.19941 v 0.58549 h 0.90692 v 6.44199 h -0.90692 v 0.57619 h 4.22248 v -0.57619 h -0.7369 z m 6.88588,0 c -0.42192,0 -0.80604,0.18253 -1.15238,0.54777 -0.34636,0.35894 -0.59508,0.91005 -0.74621,1.65313 h -0.0377 v -2.08773 h -0.33073 l -0.34003,0.0568 c -0.31486,0.0378 -0.80579,0.0569 -1.4733,0.0569 h -1.25625 v 0.58549 h 0.98237 v 6.44199 h -0.98237 v 0.57619 h 4.96817 v -0.57619 h -1.40715 v -2.59778 c 0,-1.3854 0.14141,-2.3863 0.42478,-3.00343 0.28968,-0.61714 0.59206,-0.92604 0.90692,-0.92604 0.10076,0 0.15141,0.0346 0.15141,0.10386 0,0.0378 -0.0567,0.12004 -0.17001,0.24598 -0.10706,0.12595 -0.16072,0.34608 -0.16072,0.66095 0,0.25188 0.0973,0.48206 0.29249,0.68988 0.20152,0.2078 0.44123,0.31161 0.71831,0.31161 0.27708,0 0.51327,-0.11033 0.70848,-0.33073 0.19522,-0.2267 0.29249,-0.52256 0.29249,-0.8878 0,-0.42822 -0.12887,-0.78727 -0.38706,-1.07694 -0.25819,-0.29598 -0.59217,-0.4439 -1.00149,-0.4439 z m 5.96036,0 c -1.09572,0 -2.00888,0.40618 -2.73937,1.21853 -0.73048,0.80605 -1.09554,1.72522 -1.09554,2.75797 0,1.07683 0.35905,2.02812 1.07694,2.85306 0.72419,0.82494 1.68749,1.23713 2.89026,1.23713 0.88162,0 1.63732,-0.23919 2.26705,-0.71779 0.62973,-0.47859 1.06098,-1.19668 1.29398,-2.15387 h -0.56638 c -0.25188,0.74308 -0.61746,1.29118 -1.09605,1.64383 -0.4723,0.35264 -0.98228,0.52865 -1.53014,0.52865 -0.62343,0 -1.02309,-0.18253 -1.19941,-0.54777 -0.17003,-0.37154 -0.25529,-1.03899 -0.25529,-2.00247 v -1.22783 h 4.64727 c -0.11965,-1.20907 -0.52884,-2.10969 -1.22784,-2.70164 -0.69899,-0.59194 -1.52088,-0.8878 -2.46548,-0.8878 z m 25.26771,0 c -1.24056,0 -2.24499,0.40317 -3.01325,1.20923 -0.76827,0.80604 -1.15239,1.75029 -1.15239,2.83342 0,1.07054 0.37811,2.00876 1.13378,2.81481 0.75567,0.80605 1.76611,1.20923 3.03186,1.20923 1.26575,0 2.2797,-0.39665 3.04167,-1.19011 0.76827,-0.79345 1.15239,-1.73821 1.15239,-2.83393 0,-1.10202 -0.38712,-2.04979 -1.16169,-2.84324 -0.76826,-0.79976 -1.77922,-1.19941 -3.03237,-1.19941 z m 10.37198,0 c -0.42192,0 -0.80603,0.18253 -1.15239,0.54777 -0.34634,0.35894 -0.59507,0.91005 -0.74621,1.65313 h -0.0382 v -2.08773 h -0.33021 l -0.34003,0.0568 c -0.31487,0.0378 -0.8063,0.0569 -1.47381,0.0569 h -1.25626 v 0.58549 h 0.98237 v 6.44199 h -0.98237 v 0.57619 h 4.96869 v -0.57619 h -1.40766 v -2.59778 c 0,-1.3854 0.14191,-2.3863 0.42529,-3.00343 0.28968,-0.61714 0.59206,-0.92604 0.90693,-0.92604 0.10075,0 0.15089,0.0346 0.15089,0.10386 0,0.0378 -0.0567,0.12004 -0.17001,0.24598 -0.10706,0.12595 -0.16072,0.34608 -0.16072,0.66095 0,0.25188 0.0978,0.48206 0.29301,0.68988 0.20151,0.2078 0.4407,0.31161 0.71778,0.31161 0.27708,0 0.51327,-0.11033 0.70849,-0.33073 0.19521,-0.2267 0.293,-0.52256 0.293,-0.8878 0,-0.42822 -0.12938,-0.78727 -0.38757,-1.07694 -0.25819,-0.29598 -0.59165,-0.4439 -1.00097,-0.4439 z m 15.44402,0 c -0.88792,0 -1.58395,0.25825 -2.08773,0.77463 -0.50378,0.51638 -0.75551,1.13316 -0.75551,1.85105 0,0.62342 0.14793,1.12439 0.4439,1.50223 0.29597,0.37154 0.67708,0.6298 1.14308,0.77463 0.46599,0.13854 1.05771,0.24835 1.7756,0.33021 0.72418,0.0819 1.18051,0.20172 1.36943,0.35915 0.19521,0.15744 0.293,0.36203 0.293,0.61392 0,0.35894 -0.18253,0.6548 -0.54777,0.8878 -0.35894,0.233 -0.78719,0.34985 -1.28467,0.34985 -1.3854,0 -2.28251,-0.81889 -2.69183,-2.45618 h -0.56689 v 2.76779 h 0.4346 l 0.5948,-0.48162 c 0.57934,0.52897 1.31598,0.79323 2.2102,0.79323 0.9068,0 1.6249,-0.27379 2.15387,-0.82166 0.53527,-0.55415 0.80305,-1.26272 0.80305,-2.12545 0,-0.6864 -0.21112,-1.25004 -0.63303,-1.69085 -0.42192,-0.44081 -1.14303,-0.71159 -2.16318,-0.81235 -1.02016,-0.10076 -1.65601,-0.2201 -1.90789,-0.35864 -0.2456,-0.13854 -0.36846,-0.33712 -0.36846,-0.59531 0,-0.30227 0.16047,-0.55752 0.48163,-0.76533 0.32116,-0.21411 0.70227,-0.32091 1.14308,-0.32091 1.17129,0 1.933,0.59172 2.28565,1.7756 h 0.57619 v -2.35179 h -0.4439 l -0.4439,0.53847 c -0.57935,-0.35895 -1.1836,-0.53847 -1.81332,-0.53847 z m -92.62639,0.48162 c 0.59824,0 0.96029,0.21112 1.08624,0.63304 0.12594,0.42191 0.18862,1.4484 0.18862,3.0794 0,1.04534 -0.0221,1.78851 -0.0661,2.22932 -0.0441,0.43451 -0.17595,0.73638 -0.39636,0.9064 -0.21411,0.16373 -0.46635,0.24598 -0.75602,0.24598 -0.35895,0 -0.64528,-0.0948 -0.85938,-0.2837 -0.20783,-0.19521 -0.33369,-0.44694 -0.37776,-0.75551 -0.0378,-0.30857 -0.0568,-1.13999 -0.0568,-2.4939 0,-1.3917 0.0221,-2.2512 0.0661,-2.57866 0.0441,-0.33375 0.16694,-0.57947 0.36846,-0.7369 0.20151,-0.16373 0.46929,-0.24547 0.80305,-0.24547 z m 66.81039,0 c 0.59824,0 0.96081,0.21112 1.08676,0.63304 0.12594,0.42191 0.18861,1.4484 0.18861,3.0794 0,1.04534 -0.0221,1.78851 -0.0661,2.22932 -0.0441,0.43451 -0.17648,0.73638 -0.39688,0.9064 -0.2141,0.16373 -0.46583,0.24598 -0.75551,0.24598 -0.35894,0 -0.64527,-0.0948 -0.85937,-0.2837 -0.20783,-0.19521 -0.33369,-0.44694 -0.37776,-0.75551 -0.0378,-0.30857 -0.0568,-1.13999 -0.0568,-2.4939 0,-1.3917 0.0221,-2.2512 0.0661,-2.57866 0.0441,-0.33375 0.16694,-0.57947 0.36846,-0.7369 0.20151,-0.16373 0.46878,-0.24547 0.80253,-0.24547 z m -46.28451,0.0569 c 0.25818,0 0.45024,0.11333 0.57619,0.34003 0.13224,0.2267 0.19792,0.90067 0.19792,2.02158 v 2.08721 c 0,0.98237 -0.0567,1.63127 -0.17002,1.94613 -0.11335,0.31486 -0.32095,0.47233 -0.62321,0.47233 -0.34636,0 -0.66128,-0.18305 -0.94465,-0.54829 -0.28338,-0.36524 -0.42478,-0.95043 -0.42478,-1.75648 v -1.93683 c 0,-0.85014 0.15746,-1.49852 0.47232,-1.94562 0.31486,-0.4534 0.62025,-0.68006 0.91623,-0.68006 z m 21.05453,0 c 0.32116,0 0.5734,0.1038 0.75602,0.31161 0.18892,0.20151 0.28319,0.6453 0.28319,1.3317 v 0.79375 h -2.03089 v -0.77463 c 0,-0.74308 0.0883,-1.20593 0.26459,-1.38855 0.18262,-0.18262 0.42481,-0.27388 0.72709,-0.27388 z" />
      <path
         id="path6"
         style="-inkscape-font-specification:'Bodoni MT, Normal';fill:#ffffff;stroke-width:1;stroke-linecap:round;paint-order:fill markers stroke"
         d="m 417.27318,88.095304 v 4.675207 h 7.33998 l 24.41105,59.933189 h 4.44919 l 10.25455,-25.49361 10.50437,25.49361 h 4.33022 L 501.0464,92.770511 h 6.74516 v -4.675207 h -20.41393 v 4.675207 h 8.54149 L 480.48973,134.4073 470.4731,110.21039 477.47999,92.770511 h 7.10204 v -4.675207 z m 21.00874,4.675207 h 11.32522 l 11.51554,28.194069 -5.57934,14.02564 z m 25.12482,0 h 9.08872 l -4.49678,11.063499 z" />
      <rect
         style="fill:#ffffff;fill-opacity:1;stroke:none;stroke-width:0.1;stroke-linecap:round;stroke-dasharray:none;paint-order:fill markers stroke"
         id="rect13"
         width="15.417507"
         height="4.6752076"
         x="478.88373"
         y="88.095276" />
      <rect
         style="fill:#ffffff;fill-opacity:1;stroke:none;stroke-width:0.1;stroke-linecap:round;stroke-dasharray:none;paint-order:fill markers stroke"
         id="rect14"
         width="122.40025"
         height="4.6752076"
         x="385.3913"
         y="148.02855" />
      <rect
         style="fill:#ffffff;fill-opacity:1;stroke:none;stroke-width:0.1;stroke-linecap:round;stroke-dasharray:none;paint-order:fill markers stroke"
         id="rect15"
         width="122.40025"
         height="1.9372151"
         x="385.3913"
         y="178.88449" />
      <g
         id="g5"
         transform="translate(3.2729492e-5,294.34968)">
        <path
           id="path1"
           style="-inkscape-font-specification:'Bodoni MT, Normal';fill:#ffffff;stroke-width:1;stroke-linecap:round;paint-order:fill markers stroke"
           d="m 385.39128,86.811035 v 4.675207 h 9.89766 v 55.257978 h -9.89766 v 4.67521 h 33.36891 v -4.67521 h -10.1237 v -23.82814 h 7.8753 c 8.75435,0 15.18174,-1.62893 19.20052,-5.17487 3.92628,-3.46821 5.97191,-7.91192 5.97191,-13.03827 0,-5.00769 -2.02996,-9.361 -5.92433,-12.764642 -3.93751,-3.470355 -9.67756,-5.127263 -17.09487,-5.127263 z m 23.24521,4.675207 h 6.97119 c 2.59643,0 4.72558,0.248163 6.38829,0.678187 1.46894,0.354518 2.77299,1.32967 3.96143,3.140609 1.71711,2.547643 1.56724,5.591752 1.84395,8.541472 0,4.61542 -0.80733,7.94588 -2.11744,9.89766 -1.37387,2.08958 -2.91749,3.24192 -4.67523,3.68783 -1.94132,0.49264 -4.4432,0.76129 -7.50651,0.76129 h -4.85366 z"
           sodipodi:nodetypes="ccccccccccscscsccsccscsscc" />
        <text
           xml:space="preserve"
           style="font-style:normal;font-variant:normal;font-weight:normal;font-stretch:normal;font-size:19.3452px;font-family:'Bodoni MT';-inkscape-font-specification:'Bodoni MT, Normal';font-variant-ligatures:normal;font-variant-caps:normal;font-variant-numeric:normal;font-variant-east-asian:normal;text-align:center;writing-mode:lr-tb;direction:ltr;text-anchor:middle;fill:#ffffff;stroke-width:0.200001;stroke-linecap:round;paint-order:fill markers stroke"
           x="446.7142"
           y="170.33867"
           id="text1"><tspan
             sodipodi:role="line"
             id="tspan1"
             style="font-style:normal;font-variant:normal;font-weight:bold;font-stretch:normal;font-size:19.3452px;font-family:'Bodoni MT';-inkscape-font-specification:'Bodoni MT, Bold';font-variant-ligatures:normal;font-variant-caps:normal;font-variant-numeric:normal;font-variant-east-asian:normal;text-align:center;text-anchor:middle;fill:#ffffff;stroke-width:0.200001"
             x="446.7142"
             y="170.33867">PhonbireWorks</tspan></text>
        <path
           id="path2"
           style="-inkscape-font-specification:'Bodoni MT, Normal';fill:#ffffff;stroke-width:1;stroke-linecap:round;paint-order:fill markers stroke"
           d="m 417.27315,86.811035 v 4.675207 h 7.33998 l 24.41105,59.933188 h 4.44919 l 10.25455,-25.49361 10.50437,25.49361 h 4.33022 l 22.48386,-59.933188 h 6.74516 V 86.811035 H 487.3776 v 4.675207 h 8.54149 l -15.42939,41.636788 -10.01663,-24.19691 7.00689,-17.439878 h 7.10204 v -4.675207 z m 21.00874,4.675207 h 11.32522 l 11.51554,28.194068 -5.57934,14.02564 z m 25.12482,0 h 9.08872 l -4.49678,11.063498 z" />
        <rect
           style="fill:#ffffff;fill-opacity:1;stroke:none;stroke-width:0.1;stroke-linecap:round;stroke-dasharray:none;paint-order:fill markers stroke"
           id="rect2"
           width="15.417507"
           height="4.6752076"
           x="478.8837"
           y="86.811005" />
        <rect
           style="fill:#ffffff;fill-opacity:1;stroke:none;stroke-width:0.1;stroke-linecap:round;stroke-dasharray:none;paint-order:fill markers stroke"
           id="rect3"
           width="122.40025"
           height="4.6752076"
           x="385.39127"
           y="146.74428" />
        <rect
           style="fill:#ffffff;fill-opacity:1;stroke:none;stroke-width:0.1;stroke-linecap:round;stroke-dasharray:none;paint-order:fill markers stroke"
           id="rect5"
           width="122.40025"
           height="1.9372151"
           x="385.39127"
           y="177.60022" />
      </g>
      <rect
         style="fill:#000000;fill-opacity:1;stroke:#ffffff;stroke-width:5;stroke-linecap:round;stroke-dasharray:none;paint-order:stroke markers fill"
         id="rect1"
         width="141.12083"
         height="141.12083"
         x="609.51764"
         y="63.898071"
         inkscape:export-filename="C:\Users\warre\OneDrive\Desktop\logo.png"
         inkscape:export-xdpi="96"
         inkscape:export-ydpi="96" />
      <g
         id="g8"
         transform="translate(233.48668,1.2842687)">
        <path
           id="path3"
           style="-inkscape-font-specification:'Bodoni MT, Normal';fill:#ffffff;stroke-width:1;stroke-linecap:round;paint-order:fill markers stroke"
           d="m 385.39128,86.811035 v 4.675207 h 9.89766 v 55.257978 h -9.89766 v 4.67521 h 33.36891 v -4.67521 h -10.1237 v -23.82814 h 7.8753 c 8.75435,0 15.18174,-1.62893 19.20052,-5.17487 3.92628,-3.46821 5.97191,-7.91192 5.97191,-13.03827 0,-5.00769 -2.02996,-9.361 -5.92433,-12.764642 -3.93751,-3.470355 -9.67756,-5.127263 -17.09487,-5.127263 z m 23.24521,4.675207 h 6.97119 c 2.59643,0 4.72558,0.248163 6.38829,0.678187 1.46894,0.354518 2.77299,1.32967 3.96143,3.140609 1.71711,2.547643 1.56724,5.591752 1.84395,8.541472 0,4.61542 -0.80733,7.94588 -2.11744,9.89766 -1.37387,2.08958 -2.91749,3.24192 -4.67523,3.68783 -1.94132,0.49264 -4.4432,0.76129 -7.50651,0.76129 h -4.85366 z"
           sodipodi:nodetypes="ccccccccccscscsccsccscsscc" />
        <text
           xml:space="preserve"
           style="font-style:normal;font-variant:normal;font-weight:normal;font-stretch:normal;font-size:19.3452px;font-family:'Bodoni MT';-inkscape-font-specification:'Bodoni MT, Normal';font-variant-ligatures:normal;font-variant-caps:normal;font-variant-numeric:normal;font-variant-east-asian:normal;text-align:center;writing-mode:lr-tb;direction:ltr;text-anchor:middle;fill:#ffffff;stroke-width:0.200001;stroke-linecap:round;paint-order:fill markers stroke"
           x="446.7142"
           y="170.33867"
           id="text3"><tspan
             sodipodi:role="line"
             id="tspan3"
             style="font-style:normal;font-variant:normal;font-weight:bold;font-stretch:normal;font-size:19.3452px;font-family:'Bodoni MT';-inkscape-font-specification:'Bodoni MT, Bold';font-variant-ligatures:normal;font-variant-caps:normal;font-variant-numeric:normal;font-variant-east-asian:normal;text-align:center;text-anchor:middle;fill:#ffffff;stroke-width:0.200001"
             x="446.7142"
             y="170.33867">PhonbireWorks</tspan></text>
        <path
           id="path4"
           style="-inkscape-font-specification:'Bodoni MT, Normal';fill:#ffffff;stroke-width:1;stroke-linecap:round;paint-order:fill markers stroke"
           d="m 417.27315,86.811035 v 4.675207 h 7.33998 l 24.41105,59.933188 h 4.44919 l 10.25455,-25.49361 10.50437,25.49361 h 4.33022 l 22.48386,-59.933188 h 6.74516 V 86.811035 H 487.3776 v 4.675207 h 8.54149 l -15.42939,41.636788 -10.01663,-24.19691 7.00689,-17.439878 h 7.10204 v -4.675207 z m 21.00874,4.675207 h 11.32522 l 11.51554,28.194068 -5.57934,14.02564 z m 25.12482,0 h 9.08872 l -4.49678,11.063498 z" />
        <rect
           style="fill:#ffffff;fill-opacity:1;stroke:none;stroke-width:0.1;stroke-linecap:round;stroke-dasharray:none;paint-order:fill markers stroke"
           id="rect6"
           width="15.417507"
           height="4.6752076"
           x="478.8837"
           y="86.811005" />
        <rect
           style="fill:#ffffff;fill-opacity:1;stroke:none;stroke-width:0.1;stroke-linecap:round;stroke-dasharray:none;paint-order:fill markers stroke"
           id="rect7"
           width="122.40025"
           height="4.6752076"
           x="385.39127"
           y="146.74428" />
        <rect
           style="fill:#ffffff;fill-opacity:1;stroke:none;stroke-width:0.1;stroke-linecap:round;stroke-dasharray:none;paint-order:fill markers stroke"
           id="rect8"
           width="122.40025"
           height="1.9372151"
           x="385.39127"
           y="177.60022" />
      </g>
      <path
         id="path8"
         style="font-weight:bold;font-size:19.3452px;font-family:'Bodoni MT';-inkscape-font-specification:'Bodoni MT, Bold';text-align:center;text-anchor:middle;fill:#ffffff;stroke-width:0.200001;stroke-linecap:round;paint-order:fill markers stroke"
         d="m 206.98592,54.856864 -0.65163,0.08475 c -0.62973,0.063 -1.21845,0.09457 -1.76631,0.09457 h -1.03921 v 0.57619 h 1.17099 v 11.51455 h -1.09554 v 0.57619 h 4.77955 v -0.57619 h -1.10484 v -4.3925 c 0,-0.17633 0.173,-0.55392 0.51935,-1.13327 0.35265,-0.58564 0.8185,-0.87849 1.39785,-0.87849 0.48488,0 0.7276,0.36505 0.7276,1.09554 v 5.30872 h -1.07694 v 0.57619 h 4.73253 v -0.57619 h -1.07694 v -4.76044 c 0,-0.98237 -0.27379,-1.6438 -0.82165,-1.98386 -0.54786,-0.34005 -1.09296,-0.51004 -1.63453,-0.51004 -1.23426,0 -2.14391,0.60425 -2.72955,1.81332 h -0.0377 v -6.82904 z m 30.39712,0 -0.72761,0.08475 c -0.56046,0.063 -1.01378,0.09457 -1.36012,0.09457 h -1.23765 v 0.57619 h 1.02009 v 11.51455 h -1.02009 v 0.57619 h 1.25625 c 0.81235,0 1.50237,0.0376 2.06913,0.11317 h 0.27388 v -1.0387 h 0.0377 c 0.44082,0.77457 1.07666,1.16169 1.9079,1.16169 0.81864,0 1.54627,-0.39665 2.18229,-1.19011 0.63602,-0.79345 0.95395,-1.77281 0.95395,-2.9378 0,-1.1713 -0.31492,-2.11906 -0.94464,-2.84324 -0.62973,-0.73048 -1.34431,-1.09554 -2.14406,-1.09554 -0.85643,0 -1.50833,0.35252 -1.95544,1.05781 h -0.0377 v -6.07353 z m 63.24006,0 -2.26704,0.17932 h -0.8692 v 0.57619 h 1.08624 v 11.51455 h -1.08624 v 0.57619 h 4.50567 v -0.57619 h -0.86868 v -3.37189 h 0.0377 l 2.38022,3.37189 h -1.01079 v 0.57619 h 4.83639 v -0.57619 h -0.7555 l -3.40083,-4.68499 0.92604,-0.92604 c 0.37783,-0.37784 0.7083,-0.61051 0.99167,-0.69867 0.28338,-0.08816 0.65796,-0.13229 1.12396,-0.13229 h 0.28371 v -0.58549 h -4.00544 v 0.58549 h 0.52916 c 0.44711,0 0.67076,0.09427 0.67076,0.28319 0,0.06297 -0.0978,0.19836 -0.293,0.40617 -0.18891,0.20154 -0.28971,0.31187 -0.30231,0.33073 l -2.01176,1.93632 v -8.78448 z m -108.59027,0.17932 v 0.61392 h 1.57768 v 11.42979 h -1.57768 v 0.62322 h 6.49883 v -0.62322 h -1.82314 v -5.29942 h 0.56689 c 2.12847,0 3.6118,-0.33998 4.44934,-1.02009 0.83754,-0.6801 1.25625,-1.47341 1.25625,-2.38022 0,-0.89421 -0.37811,-1.67498 -1.13378,-2.34249 -0.75567,-0.66751 -2.02436,-1.00149 -3.80649,-1.00149 z m 72.2049,0 v 0.61392 h 1.3503 l 4.93097,12.28917 h 0.62322 l 2.55074,-5.2896 2.12494,5.2896 h 0.62373 l 4.4111,-11.08925 c 0.2393,-0.60453 0.41582,-0.95405 0.52917,-1.04851 0.11335,-0.10076 0.42475,-0.15141 0.93483,-0.15141 h 0.293 v -0.61392 h -3.50418 v 0.61392 h 0.64234 c 0.42822,0 0.64182,0.10379 0.64182,0.31161 0,0.19521 -0.0531,0.41586 -0.16019,0.66145 -0.10076,0.2393 -0.15142,0.36516 -0.15142,0.37776 l -2.72954,6.8957 -1.93684,-4.8364 1.14309,-2.36161 c 0.233,-0.48489 0.42205,-0.78075 0.56689,-0.8878 0.14484,-0.10705 0.42215,-0.16071 0.83147,-0.16071 h 0.32091 v -0.61392 z m -18.40095,0.22686 c -0.37784,0 -0.70228,0.13539 -0.97306,0.40618 -0.26449,0.26448 -0.39636,0.58893 -0.39636,0.97306 0,0.37784 0.13187,0.70529 0.39636,0.98237 0.27078,0.27078 0.59522,0.40618 0.97306,0.40618 0.38414,0 0.71159,-0.1354 0.98237,-0.40618 0.27708,-0.27708 0.41548,-0.60453 0.41548,-0.98237 0,-0.37783 -0.1384,-0.70228 -0.41548,-0.97306 -0.27078,-0.27079 -0.59823,-0.40618 -0.98237,-0.40618 z m -49.12826,0.38706 h 0.68057 c 0.55416,0 0.9789,0.04412 1.27486,0.13229 0.30228,0.08816 0.54799,0.33088 0.73691,0.7276 0.19522,0.39044 0.293,1.01375 0.293,1.87017 0,0.87532 -0.0978,1.51417 -0.293,1.9172 -0.19522,0.39672 -0.44694,0.64244 -0.75551,0.7369 -0.30227,0.08816 -0.73404,0.1323 -1.2945,0.1323 h -0.64233 z m 72.01576,0 h 2.16317 l 2.49391,6.1681 -1.18081,2.46548 z m 5.33714,0 h 1.47329 c 0.37154,0 0.55759,0.11685 0.55759,0.34985 0,0.13854 -0.0567,0.32407 -0.17001,0.55707 l -0.81236,1.70945 z m -55.54183,4.22248 c -1.24056,0 -2.24499,0.40317 -3.01325,1.20923 -0.76827,0.80604 -1.15291,1.75029 -1.15291,2.83342 0,1.07054 0.37811,2.00876 1.13378,2.81481 0.75568,0.80605 1.76663,1.20923 3.03238,1.20923 1.26575,0 2.27919,-0.39665 3.04116,-1.19011 0.76826,-0.79345 1.15238,-1.73821 1.15238,-2.83393 0,-1.10202 -0.38712,-2.04979 -1.16169,-2.84324 -0.76826,-0.79976 -1.77869,-1.19941 -3.03185,-1.19941 z m 8.45375,0 -0.84078,0.11317 c -0.61083,0.07557 -1.22762,0.11369 -1.85105,0.11369 h -0.68988 v 0.58549 h 1.07694 v 6.44199 h -1.09554 v 0.57619 h 4.77955 v -0.57619 h -1.10536 v -3.75947 c 0,-0.99496 0.23318,-1.691 0.69918,-2.08772 0.466,-0.39673 0.85664,-0.5948 1.17151,-0.5948 0.233,0 0.41201,0.07221 0.53795,0.21704 0.13225,0.14484 0.19844,0.45675 0.19844,0.93535 v 5.2896 h -1.09554 v 0.57619 h 4.75113 v -0.57619 h -1.07694 v -5.14801 c 0,-0.47859 -0.0567,-0.83412 -0.17002,-1.06712 -0.10705,-0.23929 -0.36178,-0.47247 -0.76481,-0.69918 -0.40302,-0.2267 -0.8724,-0.34003 -1.40766,-0.34003 -1.20278,0 -2.138,0.53505 -2.80552,1.60558 h -0.0377 v -1.60558 z m 20.24269,0 c -0.0567,0 -0.29587,0.0376 -0.71779,0.11317 -0.42192,0.07557 -0.94495,0.11369 -1.56838,0.11369 h -1.19941 v 0.58549 h 0.90692 v 6.44199 h -0.90692 v 0.57619 h 4.22248 v -0.57619 h -0.7369 z m 6.88588,0 c -0.42192,0 -0.80604,0.18253 -1.15238,0.54777 -0.34636,0.35894 -0.59508,0.91005 -0.74621,1.65313 h -0.0377 v -2.08773 h -0.33073 l -0.34003,0.05684 c -0.31486,0.0378 -0.80579,0.05685 -1.4733,0.05685 h -1.25625 v 0.58549 h 0.98237 v 6.44199 h -0.98237 v 0.57619 h 4.96817 v -0.57619 h -1.40715 v -2.59778 c 0,-1.3854 0.14141,-2.3863 0.42478,-3.00343 0.28968,-0.61714 0.59206,-0.92604 0.90692,-0.92604 0.10076,0 0.15141,0.03459 0.15141,0.10386 0,0.03778 -0.0567,0.12004 -0.17001,0.24598 -0.10706,0.12595 -0.16072,0.34608 -0.16072,0.66095 0,0.25188 0.0973,0.48206 0.29249,0.68988 0.20152,0.2078 0.44123,0.31161 0.71831,0.31161 0.27708,0 0.51327,-0.11033 0.70848,-0.33073 0.19522,-0.2267 0.29249,-0.52256 0.29249,-0.8878 0,-0.42822 -0.12887,-0.78727 -0.38706,-1.07694 -0.25819,-0.29598 -0.59217,-0.4439 -1.00149,-0.4439 z m 5.96036,0 c -1.09572,0 -2.00888,0.40618 -2.73937,1.21853 -0.73048,0.80605 -1.09554,1.72522 -1.09554,2.75797 0,1.07683 0.35905,2.02812 1.07694,2.85306 0.72419,0.82494 1.68749,1.23713 2.89026,1.23713 0.88162,0 1.63732,-0.23919 2.26705,-0.71779 0.62973,-0.47859 1.06098,-1.19668 1.29398,-2.15387 h -0.56638 c -0.25188,0.74308 -0.61746,1.29118 -1.09605,1.64383 -0.4723,0.35264 -0.98228,0.52865 -1.53014,0.52865 -0.62343,0 -1.02309,-0.18253 -1.19941,-0.54777 -0.17003,-0.37154 -0.25529,-1.03899 -0.25529,-2.00247 v -1.22783 h 4.64727 c -0.11965,-1.20907 -0.52884,-2.10969 -1.22784,-2.70164 -0.69899,-0.59194 -1.52088,-0.8878 -2.46548,-0.8878 z m 25.26771,0 c -1.24056,0 -2.24499,0.40317 -3.01325,1.20923 -0.76827,0.80604 -1.15239,1.75029 -1.15239,2.83342 0,1.07054 0.37811,2.00876 1.13378,2.81481 0.75567,0.80605 1.76611,1.20923 3.03186,1.20923 1.26575,0 2.2797,-0.39665 3.04167,-1.19011 0.76827,-0.79345 1.15239,-1.73821 1.15239,-2.83393 0,-1.10202 -0.38712,-2.04979 -1.16169,-2.84324 -0.76826,-0.79976 -1.77922,-1.19941 -3.03237,-1.19941 z m 10.37198,0 c -0.42192,0 -0.80603,0.18253 -1.15239,0.54777 -0.34634,0.35894 -0.59507,0.91005 -0.74621,1.65313 h -0.0382 v -2.08773 h -0.33021 l -0.34003,0.05684 c -0.31487,0.0378 -0.8063,0.05685 -1.47381,0.05685 h -1.25626 v 0.58549 h 0.98237 v 6.44199 h -0.98237 v 0.57619 h 4.96869 v -0.57619 h -1.40766 v -2.59778 c 0,-1.3854 0.14191,-2.3863 0.42529,-3.00343 0.28968,-0.61714 0.59206,-0.92604 0.90693,-0.92604 0.10075,0 0.15089,0.03459 0.15089,0.10386 0,0.03778 -0.0567,0.12004 -0.17001,0.24598 -0.10706,0.12595 -0.16072,0.34608 -0.16072,0.66095 0,0.25188 0.0978,0.48206 0.29301,0.68988 0.20151,0.2078 0.4407,0.31161 0.71778,0.31161 0.27708,0 0.51327,-0.11033 0.70849,-0.33073 0.19521,-0.2267 0.293,-0.52256 0.293,-0.8878 0,-0.42822 -0.12938,-0.78727 -0.38757,-1.07694 -0.25819,-0.29598 -0.59165,-0.4439 -1.00097,-0.4439 z m 15.44402,0 c -0.88792,0 -1.58395,0.25825 -2.08773,0.77463 -0.50378,0.51638 -0.75551,1.13316 -0.75551,1.85105 0,0.62342 0.14793,1.12439 0.4439,1.50223 0.29597,0.37154 0.67708,0.6298 1.14308,0.77463 0.46599,0.13854 1.05771,0.24835 1.7756,0.33021 0.72418,0.08186 1.18051,0.20172 1.36943,0.35915 0.19521,0.15744 0.293,0.36203 0.293,0.61392 0,0.35894 -0.18253,0.6548 -0.54777,0.8878 -0.35894,0.233 -0.78719,0.34985 -1.28467,0.34985 -1.3854,0 -2.28251,-0.81889 -2.69183,-2.45618 h -0.56689 v 2.76779 h 0.4346 l 0.5948,-0.48162 c 0.57934,0.52897 1.31598,0.79323 2.2102,0.79323 0.9068,0 1.6249,-0.27379 2.15387,-0.82166 0.53527,-0.55415 0.80305,-1.26272 0.80305,-2.12545 0,-0.6864 -0.21112,-1.25004 -0.63303,-1.69085 -0.42192,-0.44081 -1.14303,-0.71159 -2.16318,-0.81235 -1.02016,-0.10076 -1.65601,-0.2201 -1.90789,-0.35864 -0.2456,-0.13854 -0.36846,-0.33712 -0.36846,-0.59531 0,-0.30227 0.16047,-0.55752 0.48163,-0.76533 0.32116,-0.21411 0.70227,-0.32091 1.14308,-0.32091 1.17129,0 1.933,0.59172 2.28565,1.7756 h 0.57619 v -2.35179 h -0.4439 l -0.4439,0.53847 c -0.57935,-0.35895 -1.1836,-0.53847 -1.81332,-0.53847 z m -92.62639,0.48162 c 0.59824,0 0.96029,0.21112 1.08624,0.63304 0.12594,0.42191 0.18862,1.4484 0.18862,3.0794 0,1.04534 -0.0221,1.78851 -0.0662,2.22932 -0.0441,0.43451 -0.17595,0.73638 -0.39636,0.9064 -0.21411,0.16373 -0.46635,0.24598 -0.75602,0.24598 -0.35895,0 -0.64528,-0.09478 -0.85938,-0.2837 -0.20783,-0.19521 -0.33369,-0.44694 -0.37776,-0.75551 -0.0378,-0.30857 -0.0568,-1.13999 -0.0568,-2.4939 0,-1.3917 0.0221,-2.2512 0.0661,-2.57866 0.0441,-0.33375 0.16694,-0.57947 0.36846,-0.7369 0.20151,-0.16373 0.46929,-0.24547 0.80305,-0.24547 z m 66.81039,0 c 0.59824,0 0.96081,0.21112 1.08676,0.63304 0.12594,0.42191 0.18861,1.4484 0.18861,3.0794 0,1.04534 -0.0221,1.78851 -0.0661,2.22932 -0.0441,0.43451 -0.17648,0.73638 -0.39688,0.9064 -0.2141,0.16373 -0.46583,0.24598 -0.75551,0.24598 -0.35894,0 -0.64527,-0.09478 -0.85937,-0.2837 -0.20783,-0.19521 -0.33369,-0.44694 -0.37776,-0.75551 -0.0378,-0.30857 -0.0568,-1.13999 -0.0568,-2.4939 0,-1.3917 0.0221,-2.2512 0.0661,-2.57866 0.0441,-0.33375 0.16694,-0.57947 0.36846,-0.7369 0.20151,-0.16373 0.46878,-0.24547 0.80253,-0.24547 z m -46.28451,0.05685 c 0.25818,0 0.45024,0.11333 0.57619,0.34003 0.13224,0.2267 0.19792,0.90067 0.19792,2.02158 v 2.08721 c 0,0.98237 -0.0567,1.63127 -0.17002,1.94613 -0.11335,0.31486 -0.32095,0.47233 -0.62321,0.47233 -0.34636,0 -0.66128,-0.18305 -0.94465,-0.54829 -0.28338,-0.36524 -0.42478,-0.95043 -0.42478,-1.75648 v -1.93683 c 0,-0.85014 0.15746,-1.49852 0.47232,-1.94562 0.31486,-0.4534 0.62025,-0.68006 0.91623,-0.68006 z m 21.05453,0 c 0.32116,0 0.5734,0.1038 0.75602,0.31161 0.18892,0.20151 0.28319,0.6453 0.28319,1.3317 v 0.79375 h -2.03089 v -0.77463 c 0,-0.74308 0.0883,-1.20593 0.26459,-1.38855 0.18262,-0.18262 0.42481,-0.27388 0.72709,-0.27388 z" />
    </g>
  </g>
</svg>
