<?xml version="1.0" encoding="UTF-8" standalone="no"?>
<!-- Created with Inkscape (http://www.inkscape.org/) -->

<svg
   width="257.55533mm"
   height="203.39754mm"
   viewBox="0 0 257.55533 203.39754"
   version="1.1"
   id="svg1"
   xml:space="preserve"
   inkscape:version="1.4 (86a8ad7, 2024-10-11)"
   sodipodi:docname="PRODUCT MOCKUP TEMPLATE.svg"
   inkscape:export-filename="C:\Users\warre\OneDrive\Desktop\PRODUCT MOCKUP TEMPLATE.webp"
   inkscape:export-xdpi="192"
   inkscape:export-ydpi="192"
   xmlns:inkscape="http://www.inkscape.org/namespaces/inkscape"
   xmlns:sodipodi="http://sodipodi.sourceforge.net/DTD/sodipodi-0.dtd"
   xmlns:xlink="http://www.w3.org/1999/xlink"
   xmlns="http://www.w3.org/2000/svg"
   xmlns:svg="http://www.w3.org/2000/svg"><sodipodi:namedview
     id="namedview1"
     pagecolor="#ffffff"
     bordercolor="#000000"
     borderopacity="0.25"
     inkscape:showpageshadow="2"
     inkscape:pageopacity="0.0"
     inkscape:pagecheckerboard="0"
     inkscape:deskcolor="#d1d1d1"
     inkscape:document-units="mm"
     inkscape:zoom="0.35355339"
     inkscape:cx="6190.0127"
     inkscape:cy="5550.7882"
     inkscape:window-width="1920"
     inkscape:window-height="991"
     inkscape:window-x="2391"
     inkscape:window-y="-9"
     inkscape:window-maximized="1"
     inkscape:current-layer="layer1"
     showguides="true"><sodipodi:guide
       position="-733.60052,317.61062"
       orientation="1,0"
       id="guide304"
       inkscape:locked="false" /><sodipodi:guide
       position="-533.60041,245.58032"
       orientation="1,0"
       id="guide305"
       inkscape:locked="false" /><sodipodi:guide
       position="-347.2031,317.61062"
       orientation="1,0"
       id="guide306"
       inkscape:locked="false" /><sodipodi:guide
       position="-147.203,245.58032"
       orientation="1,0"
       id="guide307"
       inkscape:locked="false" /><sodipodi:guide
       position="-347.2031,785.11552"
       orientation="0,-1"
       id="guide343"
       inkscape:locked="false" /><sodipodi:guide
       position="-792.09892,196.56212"
       orientation="1,0"
       id="guide1"
       inkscape:locked="false" /><sodipodi:guide
       position="-992.09898,196.56212"
       orientation="1,0"
       id="guide2"
       inkscape:locked="false" /><sodipodi:guide
       position="-1434.6969,206.90702"
       orientation="1,0"
       id="guide54"
       inkscape:locked="false" /><sodipodi:guide
       position="-1234.6968,206.90702"
       orientation="1,0"
       id="guide55"
       inkscape:locked="false" /><inkscape:page
       x="0"
       y="0"
       width="257.55533"
       height="203.39754"
       id="page2"
       margin="0"
       bleed="0" /></sodipodi:namedview><defs
     id="defs1"><linearGradient
       id="linearGradient43"
       inkscape:collect="always"><stop
         style="stop-color:#000000;stop-opacity:1;"
         offset="0"
         id="stop43" /><stop
         style="stop-color:#3c3c3c;stop-opacity:1;"
         offset="1"
         id="stop44" /></linearGradient><linearGradient
       id="linearGradient38"
       inkscape:collect="always"><stop
         style="stop-color:#2f2f2f;stop-opacity:1;"
         offset="0"
         id="stop38" /><stop
         style="stop-color:#000000;stop-opacity:1;"
         offset="1"
         id="stop39" /></linearGradient><linearGradient
       id="linearGradient35"
       inkscape:collect="always"><stop
         style="stop-color:#c3c3c3;stop-opacity:1;"
         offset="0"
         id="stop35" /><stop
         style="stop-color:#aeaeae;stop-opacity:1;"
         offset="1"
         id="stop36" /></linearGradient><filter
       inkscape:collect="always"
       style="color-interpolation-filters:sRGB"
       id="filter46"
       x="-0.0672814"
       y="-0.0672814"
       width="1.1345628"
       height="1.1345628"><feGaussianBlur
         inkscape:collect="always"
         stdDeviation="0.015681814"
         id="feGaussianBlur46" /></filter><filter
       inkscape:collect="always"
       style="color-interpolation-filters:sRGB"
       id="filter118"
       x="-0.042896908"
       y="-0.035530013"
       width="1.0857938"
       height="1.07106"><feGaussianBlur
         inkscape:collect="always"
         stdDeviation="2.3618161"
         id="feGaussianBlur118" /></filter><radialGradient
       inkscape:collect="always"
       xlink:href="#linearGradient38"
       id="radialGradient99"
       gradientUnits="userSpaceOnUse"
       gradientTransform="matrix(1.2481206,0,0,1.2481206,-1874.6478,1854.5497)"
       cx="78.265388"
       cy="54.412754"
       fx="78.265388"
       fy="54.412754"
       r="1.5084023" /><linearGradient
       inkscape:collect="always"
       xlink:href="#linearGradient43"
       id="linearGradient99"
       gradientUnits="userSpaceOnUse"
       gradientTransform="matrix(0,-1.125927,1.125927,0,1861.1987,1854.6577)"
       x1="129.64583"
       y1="163.24791"
       x2="5.8208332"
       y2="46.302082" /><linearGradient
       inkscape:collect="always"
       xlink:href="#linearGradient35"
       id="linearGradient100"
       gradientUnits="userSpaceOnUse"
       gradientTransform="matrix(0,-1.125927,1.125927,0,1861.1987,1865.0842)"
       x1="78.265503"
       y1="192.58167"
       x2="78.265503"
       y2="50.387928" /><radialGradient
       inkscape:collect="always"
       xlink:href="#linearGradient38"
       id="radialGradient109"
       gradientUnits="userSpaceOnUse"
       gradientTransform="matrix(0.68191336,0,0,0.68191336,1859.4557,1736.9251)"
       cx="78.265388"
       cy="54.412754"
       fx="78.265388"
       fy="54.412754"
       r="1.5084023" /><linearGradient
       inkscape:collect="always"
       xlink:href="#linearGradient43"
       id="linearGradient109"
       gradientUnits="userSpaceOnUse"
       gradientTransform="matrix(0.61515263,0,0,0.61515263,1870.3774,1740.5578)"
       x1="129.64583"
       y1="163.24791"
       x2="5.8208332"
       y2="46.302082" /><linearGradient
       inkscape:collect="always"
       xlink:href="#linearGradient35"
       id="linearGradient110"
       gradientUnits="userSpaceOnUse"
       gradientTransform="matrix(0.61515263,0,0,0.61515263,1864.6808,1740.5578)"
       x1="78.265503"
       y1="192.58167"
       x2="78.265503"
       y2="50.387928" /><radialGradient
       inkscape:collect="always"
       xlink:href="#linearGradient38"
       id="radialGradient119"
       gradientUnits="userSpaceOnUse"
       gradientTransform="matrix(1.7577938,0,0,1.7577938,-1885.2432,2036.4247)"
       cx="78.265388"
       cy="54.412754"
       fx="78.265388"
       fy="54.412754"
       r="1.5084023" /><linearGradient
       inkscape:collect="always"
       xlink:href="#linearGradient43"
       id="linearGradient119"
       gradientUnits="userSpaceOnUse"
       gradientTransform="matrix(0,-1.5857021,1.5857021,0,2045.7888,1857.0901)"
       x1="129.64583"
       y1="163.24791"
       x2="5.8208332"
       y2="46.302082" /><linearGradient
       inkscape:collect="always"
       xlink:href="#linearGradient35"
       id="linearGradient120"
       gradientUnits="userSpaceOnUse"
       gradientTransform="matrix(0,-1.5857021,1.5857021,0,2045.7888,1871.7743)"
       x1="78.265503"
       y1="192.58167"
       x2="78.265503"
       y2="50.387928" /></defs><g
     inkscape:label="Layer 1"
     inkscape:groupmode="layer"
     id="layer1"
     transform="translate(-1873.6319,-1658.7242)"><g
       id="g120"
       transform="translate(-227.96175,12.088002)"><path
         style="mix-blend-mode:normal;fill:#000000;fill-opacity:1;stroke-width:0.799466;stroke-linecap:round;paint-order:stroke markers fill;filter:url(#filter118)"
         d="m 1557.2217,1697.1944 h 113.1808 c 5.2515,0 9.4791,4.2276 9.4791,9.4791 v 140.5789 c 0,5.2514 -4.2276,9.4792 -9.4791,9.4792 h -113.1808 c -5.2515,0 -9.4792,-4.2278 -9.4792,-9.4792 v -140.5789 c 0,-5.2515 4.2277,-9.4791 9.4792,-9.4791 z"
         id="path111"
         transform="matrix(0,-1.4083525,1.4083525,0,-263.7666,4020.4849)" /><rect
         style="fill:#949494;fill-opacity:1;stroke:none;stroke-width:0.860444;stroke-linecap:round;stroke-dasharray:none;paint-order:stroke markers fill"
         id="rect111"
         width="0.95498484"
         height="11.380303"
         x="-1654.3048"
         y="2163.9724"
         ry="0.42408824"
         rx="0.42408824"
         transform="rotate(-90)" /><rect
         style="fill:#949494;fill-opacity:1;stroke:none;stroke-width:0.860444;stroke-linecap:round;stroke-dasharray:none;paint-order:stroke markers fill"
         id="rect112"
         width="0.95498484"
         height="11.380303"
         x="-1654.3048"
         y="2176.6902"
         ry="0.42408824"
         rx="0.42408824"
         transform="rotate(-90)" /><path
         style="fill:url(#linearGradient120);fill-opacity:1;stroke-width:1.12593;stroke-linecap:round;paint-order:stroke markers fill"
         d="m 2125.689,1827.369 c 0,7.8212 6.3199,14.1409 14.1414,14.1409 h 197.9867 c 7.8214,0 14.1412,-6.3197 14.1412,-14.1409 v -159.4005 c 0,-7.8214 -6.3198,-14.1412 -14.1412,-14.1412 h -197.9867 c -7.8215,0 -14.1414,6.3198 -14.1414,14.1412 z m 1.5858,0 v -159.4005 c 0,-6.9703 5.5853,-12.5556 12.5556,-12.5556 h 197.9867 c 6.9703,0 12.5556,5.5854 12.5556,12.5556 v 159.4005 c 0,6.9702 -5.5853,12.5554 -12.5556,12.5554 h -197.9867 c -6.9703,0 -12.5556,-5.5852 -12.5556,-12.5554 z"
         id="path112" /><path
         style="fill:url(#linearGradient119);fill-opacity:1;stroke-width:1.12593;stroke-linecap:round;paint-order:stroke markers fill"
         d="m 2126.4815,1827.3677 v -159.3985 c 0,-7.3959 5.954,-13.3499 13.3499,-13.3499 h 197.9847 c 7.3958,0 13.35,5.954 13.35,13.3499 v 159.3985 c 0,7.396 -5.9542,13.35 -13.35,13.35 h -197.9847 c -7.3959,0 -13.3499,-5.954 -13.3499,-13.35 z"
         id="path114" /><rect
         style="fill:#808080;fill-opacity:1;stroke:#000000;stroke-width:0.900741;stroke-linecap:round;stroke-dasharray:none;paint-order:stroke markers fill"
         id="rect114"
         width="165.25865"
         height="202.868"
         x="-1830.2977"
         y="2137.3896"
         ry="2.7946994"
         rx="2.7946994"
         transform="rotate(-90)" /><rect
         style="fill:#ffffff;stroke:none;stroke-width:4.65258;stroke-linecap:round;paint-order:stroke markers fill"
         id="rect115"
         width="143.44202"
         height="202.868"
         x="-1819.3895"
         y="2137.3896"
         transform="rotate(-90)" /><circle
         style="fill:#333333;fill-opacity:1;stroke:#b3b3b3;stroke-width:0.225184;stroke-linecap:round;stroke-dasharray:none;paint-order:stroke markers fill"
         id="circle115"
         cx="-1747.6686"
         cy="2132.0713"
         r="2.9295857"
         transform="rotate(-90)" /><circle
         style="fill:url(#radialGradient119);stroke:none;stroke-width:1.78899;stroke-linecap:round;stroke-dasharray:none;paint-order:stroke markers fill"
         id="circle116"
         cx="-1747.6686"
         cy="2132.0713"
         r="2.6514604"
         transform="rotate(-90)" /><circle
         style="fill:#030303;fill-opacity:1;stroke:none;stroke-width:1.02585;stroke-linecap:round;stroke-dasharray:none;paint-order:stroke markers fill"
         id="circle117"
         cx="-1747.6686"
         cy="2132.0713"
         r="1.5204177"
         transform="rotate(-90)" /><circle
         style="mix-blend-mode:normal;fill:#b3b3b3;fill-opacity:1;stroke:none;stroke-width:0.212967;stroke-linecap:round;stroke-dasharray:none;paint-order:stroke markers fill;filter:url(#filter46)"
         id="circle118"
         cx="1209.3163"
         cy="4723.4302"
         r="0.2796936"
         transform="matrix(0,-1.5857021,1.5857021,0,-5358.4134,3664.8406)" /><path
         id="path119"
         style="fill:#000000;fill-opacity:1;stroke:none;stroke-width:0.334574;stroke-linecap:round;stroke-dasharray:none;paint-order:stroke markers fill"
         d="m 2126.4815,1762.7849 c 0,-0.6235 0,-1.2468 0.291,-1.7715 0.2908,-0.5247 0.8725,-0.9504 1.1634,-1.392 0.2908,-0.4416 0.291,-0.8986 0.291,-1.9063 v -4.3324 -5.7142 -5.7141 -4.3323 c 0,-1.0079 -2e-4,-1.4648 -0.291,-1.9065 -0.2909,-0.4415 -0.8726,-0.8674 -1.1634,-1.3921 -0.291,-0.5245 -0.291,-1.148 -0.291,-1.7714 v 15.1164 z" /></g><path
       style="mix-blend-mode:normal;fill:#000000;fill-opacity:1;stroke-width:1.12593;stroke-linecap:round;paint-order:stroke markers fill;filter:url(#filter118)"
       d="m 1557.2217,1697.1944 h 113.1808 c 5.2515,0 9.4791,4.2276 9.4791,9.4791 v 140.5789 c 0,5.2514 -4.2276,9.4792 -9.4791,9.4792 h -113.1808 c -5.2515,0 -9.4792,-4.2278 -9.4792,-9.4792 v -140.5789 c 0,-5.2515 4.2277,-9.4791 9.4792,-9.4791 z"
       id="path1"
       transform="rotate(-90,1806.0376,1584.7375)" /><rect
       style="fill:#949494;fill-opacity:1;stroke:none;stroke-width:0.860444;stroke-linecap:round;stroke-dasharray:none;paint-order:stroke markers fill"
       id="rect89"
       width="0.67808652"
       height="8.0805788"
       x="-1710.67"
       y="1945.115"
       ry="0.30112365"
       rx="0.30112365"
       transform="rotate(-90)" /><rect
       style="fill:#949494;fill-opacity:1;stroke:none;stroke-width:0.860444;stroke-linecap:round;stroke-dasharray:none;paint-order:stroke markers fill"
       id="rect90"
       width="0.67808652"
       height="8.0805788"
       x="-1710.67"
       y="1954.1453"
       ry="0.30112365"
       rx="0.30112365"
       transform="rotate(-90)" /><path
       style="fill:url(#linearGradient100);fill-opacity:1;stroke-width:1.12593;stroke-linecap:round;paint-order:stroke markers fill"
       d="m 1917.9318,1833.5542 c 0,5.5535 4.4874,10.0408 10.0411,10.0408 h 140.5803 c 5.5536,0 10.041,-4.4873 10.041,-10.0408 V 1720.372 c 0,-5.5536 -4.4874,-10.041 -10.041,-10.041 h -140.5803 c -5.5537,0 -10.0411,4.4874 -10.0411,10.041 z m 1.126,0 V 1720.372 c 0,-4.9493 3.9658,-8.9151 8.9151,-8.9151 h 140.5803 c 4.9493,0 8.9151,3.9659 8.9151,8.9151 v 113.1822 c 0,4.9492 -3.9658,8.915 -8.9151,8.915 h -140.5803 c -4.9493,0 -8.9151,-3.9658 -8.9151,-8.915 z"
       id="path91" /><path
       style="fill:url(#linearGradient99);fill-opacity:1;stroke-width:1.12593;stroke-linecap:round;paint-order:stroke markers fill"
       d="m 1918.4945,1833.5533 v -113.1808 c 0,-5.2515 4.2276,-9.4791 9.4791,-9.4791 h 140.5789 c 5.2514,0 9.4792,4.2276 9.4792,9.4791 v 113.1808 c 0,5.2515 -4.2278,9.4792 -9.4792,9.4792 h -140.5789 c -5.2515,0 -9.4791,-4.2277 -9.4791,-9.4792 z"
       id="path92" /><rect
       style="fill:#808080;fill-opacity:1;stroke:#000000;stroke-width:0.900742;stroke-linecap:round;stroke-dasharray:none;paint-order:stroke markers fill"
       id="rect93"
       width="117.34182"
       height="144.04633"
       x="-1835.6338"
       y="1926.24"
       ry="1.984375"
       rx="1.984375"
       transform="rotate(-90)" /><rect
       style="fill:#ffffff;stroke:none;stroke-width:4.65258;stroke-linecap:round;paint-order:stroke markers fill"
       id="rect94"
       width="101.85093"
       height="144.04633"
       x="-1827.8884"
       y="1926.24"
       transform="rotate(-90)" /><circle
       style="fill:#333333;fill-opacity:1;stroke:#b3b3b3;stroke-width:0.225185;stroke-linecap:round;stroke-dasharray:none;paint-order:stroke markers fill"
       id="circle94"
       cx="-1776.963"
       cy="1922.4636"
       r="2.0801508"
       transform="rotate(-90)" /><circle
       style="fill:url(#radialGradient99);stroke:none;stroke-width:1.78899;stroke-linecap:round;stroke-dasharray:none;paint-order:stroke markers fill"
       id="circle95"
       cx="-1776.963"
       cy="1922.4636"
       r="1.8826681"
       transform="rotate(-90)" /><circle
       style="fill:#030303;fill-opacity:1;stroke:none;stroke-width:1.02585;stroke-linecap:round;stroke-dasharray:none;paint-order:stroke markers fill"
       id="circle96"
       cx="-1776.963"
       cy="1922.4636"
       r="1.0795718"
       transform="rotate(-90)" /><circle
       style="mix-blend-mode:normal;fill:#b3b3b3;fill-opacity:1;stroke:none;stroke-width:0.299933;stroke-linecap:round;stroke-dasharray:none;paint-order:stroke markers fill;filter:url(#filter46)"
       id="circle97"
       cx="1209.3163"
       cy="4723.4302"
       r="0.2796936"
       transform="matrix(0,-1.125927,1.125927,0,-3396.1514,3138.25)" /><path
       id="path99"
       style="fill:#000000;fill-opacity:1;stroke:none;stroke-width:0.334574;stroke-linecap:round;stroke-dasharray:none;paint-order:stroke markers fill"
       d="m 1918.4945,1787.6963 c 0,-0.4427 0,-0.8853 0.2066,-1.2578 0.2065,-0.3726 0.6195,-0.6749 0.8261,-0.9884 0.2065,-0.3136 0.2066,-0.6381 0.2066,-1.3536 v -3.0762 -4.0574 -4.0573 -3.0761 c 0,-0.7157 -10e-5,-1.0401 -0.2066,-1.3537 -0.2066,-0.3135 -0.6196,-0.6159 -0.8261,-0.9885 -0.2066,-0.3724 -0.2066,-0.8151 -0.2066,-1.2578 v 10.7334 z" /><path
       style="mix-blend-mode:normal;fill:#000000;fill-opacity:1;stroke-width:2.06081;stroke-linecap:round;paint-order:stroke markers fill;filter:url(#filter118)"
       d="m 1941.6727,1799.0455 h 113.1808 c 5.2515,0 9.4791,4.2276 9.4791,9.4791 v 140.5789 c 0,5.2514 -4.2276,9.4792 -9.4791,9.4792 h -113.1808 c -5.2515,0 -9.4792,-4.2278 -9.4792,-9.4792 v -140.5789 c 0,-5.2515 4.2277,-9.4791 9.4792,-9.4791 z"
       id="path101"
       transform="matrix(0.54635214,0,0,0.54635214,821.07075,788.94912)" /><rect
       style="fill:#949494;fill-opacity:1;stroke:none;stroke-width:0.860445;stroke-linecap:round;stroke-dasharray:none;paint-order:stroke markers fill"
       id="rect101"
       width="0.37047401"
       height="4.4148417"
       x="1949.0454"
       y="1786.4056"
       ry="0.16451955"
       rx="0.16451955" /><rect
       style="fill:#949494;fill-opacity:1;stroke:none;stroke-width:0.860445;stroke-linecap:round;stroke-dasharray:none;paint-order:stroke markers fill"
       id="rect102"
       width="0.37047401"
       height="4.4148417"
       x="1949.0454"
       y="1791.3394"
       ry="0.16451955"
       rx="0.16451955" /><path
       style="fill:url(#linearGradient110);fill-opacity:1;stroke-width:1.12593;stroke-linecap:round;paint-order:stroke markers fill"
       d="m 1881.9073,1771.554 c -3.0342,0 -5.4858,2.4517 -5.4858,5.486 v 76.8063 c 0,3.0343 2.4516,5.486 5.4858,5.486 h 61.8373 c 3.0343,0 5.486,-2.4517 5.486,-5.486 V 1777.04 c 0,-3.0343 -2.4517,-5.486 -5.486,-5.486 z m 0,0.6152 h 61.8373 c 2.7041,0 4.8708,2.1667 4.8708,4.8708 v 76.8063 c 0,2.7041 -2.1667,4.8708 -4.8708,4.8708 h -61.8373 c -2.704,0 -4.8707,-2.1667 -4.8707,-4.8708 V 1777.04 c 0,-2.7041 2.1667,-4.8708 4.8707,-4.8708 z"
       id="path102" /><path
       style="fill:url(#linearGradient109);fill-opacity:1;stroke-width:1.12593;stroke-linecap:round;paint-order:stroke markers fill"
       d="m 1881.9078,1771.8614 h 61.8366 c 2.8691,0 5.1789,2.3098 5.1789,5.179 v 76.8056 c 0,2.8691 -2.3098,5.1789 -5.1789,5.1789 h -61.8366 c -2.8692,0 -5.179,-2.3098 -5.179,-5.1789 v -76.8056 c 0,-2.8692 2.3098,-5.179 5.179,-5.179 z"
       id="path104" /><rect
       style="fill:#808080;fill-opacity:1;stroke:#000000;stroke-width:0.900743;stroke-linecap:round;stroke-dasharray:none;paint-order:stroke markers fill"
       id="rect104"
       width="64.109955"
       height="78.70002"
       x="1880.7711"
       y="1776.0933"
       ry="1.0841675"
       rx="1.0841675" /><rect
       style="fill:#ffffff;stroke:none;stroke-width:4.65258;stroke-linecap:round;paint-order:stroke markers fill"
       id="rect105"
       width="55.646473"
       height="78.70002"
       x="1885.0028"
       y="1776.0933" /><circle
       style="fill:#333333;fill-opacity:1;stroke:#b3b3b3;stroke-width:0.225185;stroke-linecap:round;stroke-dasharray:none;paint-order:stroke markers fill"
       id="circle105"
       cx="1912.826"
       cy="1774.03"
       r="1.1364949" /><circle
       style="fill:url(#radialGradient109);stroke:none;stroke-width:1.78899;stroke-linecap:round;stroke-dasharray:none;paint-order:stroke markers fill"
       id="circle106"
       cx="1912.826"
       cy="1774.03"
       r="1.0285997" /><circle
       style="fill:#030303;fill-opacity:1;stroke:none;stroke-width:1.02585;stroke-linecap:round;stroke-dasharray:none;paint-order:stroke markers fill"
       id="circle107"
       cx="1912.826"
       cy="1774.03"
       r="0.58982641" /><circle
       style="mix-blend-mode:normal;fill:#b3b3b3;fill-opacity:1;stroke:none;stroke-width:0.548974;stroke-linecap:round;stroke-dasharray:none;paint-order:stroke markers fill;filter:url(#filter46)"
       id="circle108"
       cx="1209.3163"
       cy="4723.4302"
       r="0.2796936"
       transform="matrix(0.61515262,0,0,0.61515262,1169.084,-1131.8067)" /><path
       id="path109"
       style="fill:#000000;fill-opacity:1;stroke:none;stroke-width:0.334574;stroke-linecap:round;stroke-dasharray:none;paint-order:stroke markers fill"
       d="m 1906.9619,1771.8614 c 0.2418,0 0.4837,0 0.6872,0.1129 0.2035,0.1128 0.3687,0.3385 0.54,0.4514 0.1713,0.1128 0.3486,0.1128 0.7395,0.1128 h 1.6807 2.2168 2.2167 1.6806 c 0.3911,0 0.5683,0 0.7396,-0.1128 0.1713,-0.1129 0.3365,-0.3386 0.5401,-0.4514 0.2035,-0.1129 0.4453,-0.1129 0.6872,-0.1129 h -5.8642 z" /></g></svg>
