<?xml version="1.0" encoding="UTF-8" standalone="no"?>
<!-- Created with Inkscape (http://www.inkscape.org/) -->

<svg
   width="48.668987mm"
   height="57.47871mm"
   viewBox="0 0 48.668987 57.47871"
   version="1.1"
   id="svg1"
   inkscape:version="1.4 (86a8ad7, 2024-10-11)"
   sodipodi:docname="file icons.svg"
   xmlns:inkscape="http://www.inkscape.org/namespaces/inkscape"
   xmlns:sodipodi="http://sodipodi.sourceforge.net/DTD/sodipodi-0.dtd"
   xmlns="http://www.w3.org/2000/svg"
   xmlns:svg="http://www.w3.org/2000/svg">
  <sodipodi:namedview
     id="namedview1"
     pagecolor="#ffffff"
     bordercolor="#000000"
     borderopacity="0.25"
     inkscape:showpageshadow="2"
     inkscape:pageopacity="0.0"
     inkscape:pagecheckerboard="0"
     inkscape:deskcolor="#d1d1d1"
     inkscape:document-units="mm"
     showguides="true"
     inkscape:zoom="0.48693448"
     inkscape:cx="433.32318"
     inkscape:cy="810.1706"
     inkscape:window-width="1920"
     inkscape:window-height="991"
     inkscape:window-x="2391"
     inkscape:window-y="-9"
     inkscape:window-maximized="1"
     inkscape:current-layer="layer1">
    <inkscape:page
       x="2.0675951e-16"
       y="0"
       width="48.668983"
       height="57.47871"
       id="page2"
       margin="0"
       bleed="0" />
  </sodipodi:namedview>
  <defs
     id="defs1" />
  <g
     inkscape:label="Layer 1"
     inkscape:groupmode="layer"
     id="layer1"
     transform="translate(-14.161932,-83.529046)">
    <path
       id="rect1"
       style="stroke-width:1;stroke-linecap:square;paint-order:stroke markers fill"
       d="m 17.034639,83.529042 v 57.478718 h 45.796276 v -44.049687 -2.86719 l -2.02711,-2.02689 v -2.1e-4 l -6.507633,-6.507638 -2.027103,-2.027103 h -2.867192 z m 2.026894,2.027103 h 31.773519 v 10.279858 h 9.968753 V 138.98066 H 19.061533 Z" />
    <rect
       style="fill:#000000;stroke:none;stroke-width:4.99999;stroke-linecap:square;stroke-dasharray:none;paint-order:stroke markers fill"
       id="rect2"
       width="42.128689"
       height="22.519241"
       x="14.161932"
       y="109.29803"
       ry="1.9825398" />
    <text
       xml:space="preserve"
       style="font-weight:bold;font-size:16.8507px;line-height:1;font-family:Arial;-inkscape-font-specification:'Arial Bold';text-align:center;writing-mode:lr-tb;direction:ltr;text-anchor:middle;fill:#ffffff;stroke:none;stroke-width:4.99999;stroke-linecap:square;stroke-dasharray:none;paint-order:stroke markers fill"
       x="35.52248"
       y="126.58865"
       id="text2"><tspan
         sodipodi:role="line"
         id="tspan2"
         style="text-align:center;text-anchor:middle;fill:#ffffff;stroke-width:4.99999"
         x="35.52248"
         y="126.58865">ZIP</tspan></text>
    <rect
       style="fill:#000000;stroke:none;stroke-width:4.99999;stroke-linecap:square;stroke-dasharray:none;paint-order:stroke markers fill"
       id="rect4"
       width="0.96373457"
       height="3.8911815"
       x="28.327549"
       y="84.606178" />
    <rect
       style="fill:#000000;stroke:none;stroke-width:4.99999;stroke-linecap:square;stroke-dasharray:none;paint-order:stroke markers fill"
       id="rect6"
       width="0.96373457"
       height="2.9412143"
       x="27.363815"
       y="88.49736" />
    <rect
       style="fill:#000000;stroke:none;stroke-width:4.99999;stroke-linecap:square;stroke-dasharray:none;paint-order:stroke markers fill"
       id="rect7"
       width="0.96373457"
       height="2.9412143"
       x="28.327549"
       y="91.438576" />
    <rect
       style="fill:#000000;stroke:none;stroke-width:4.99999;stroke-linecap:square;stroke-dasharray:none;paint-order:stroke markers fill"
       id="rect8"
       width="0.96373457"
       height="2.9412143"
       x="27.363815"
       y="94.379784" />
    <rect
       style="fill:#000000;stroke:none;stroke-width:4.99999;stroke-linecap:square;stroke-dasharray:none;paint-order:stroke markers fill"
       id="rect9"
       width="0.96373457"
       height="2.9412143"
       x="28.327549"
       y="97.321007" />
    <rect
       style="fill:#000000;stroke:none;stroke-width:4.99999;stroke-linecap:square;stroke-dasharray:none;paint-order:stroke markers fill"
       id="rect10"
       width="0.96373457"
       height="3.2647536"
       x="27.363815"
       y="100.26221" />
    <path
       id="path10"
       style="fill:#000000;stroke:none;stroke-width:4.99999;stroke-linecap:square;stroke-dasharray:none;paint-order:stroke markers fill"
       d="m 26.806495,102.83556 -0.893519,2.01158 a 2.1244947,2.1244947 0 0 0 0,7.5e-4 l -0.0089,0.0199 0.0013,7.5e-4 a 2.1244947,2.1244947 0 0 0 -0.184085,0.8616 2.1244947,2.1244947 0 0 0 2.124591,2.12441 2.1244947,2.1244947 0 0 0 2.12422,-2.12441 2.1244947,2.1244947 0 0 0 -0.183158,-0.86197 l 1.85e-4,-3.6e-4 -0.902427,-2.03218 z m 1.039192,1.56083 a 1.3107376,1.3107376 0 0 1 1.310681,1.31086 1.3107376,1.3107376 0 0 1 -1.310681,1.31069 1.3107376,1.3107376 0 0 1 -1.310867,-1.31069 1.3107376,1.3107376 0 0 1 1.310867,-1.31086 z" />
  </g>
</svg>
